<svg width="20" height="20" viewBox="0 0 20 20" fill="none" xmlns="http://www.w3.org/2000/svg">
<path d="M18.5194 0.00204778C18.2724 0.0220537 18.0299 0.0865647 17.8015 0.193064H17.7984C17.5791 0.289857 16.5366 0.778105 14.9516 1.51819L9.27185 4.18128C5.19629 6.09145 1.18999 7.97249 1.18999 7.97249L1.23769 7.95193C1.23769 7.95193 0.961475 8.053 0.672947 8.27314C0.494697 8.39942 0.341312 8.56465 0.222074 8.75882C0.0805034 8.9901 -0.0333689 9.34386 0.00894855 9.70962C0.0781952 10.3281 0.438278 10.699 0.696799 10.9037C0.958397 11.111 1.20769 11.2078 1.20769 11.2078H1.21384L4.97086 12.6168C5.13936 13.219 6.11574 16.7926 6.35041 17.6158C6.4889 18.1075 6.62355 18.415 6.79205 18.6497C6.8736 18.7696 6.96901 18.8698 7.08365 18.9504C7.14325 18.989 7.2068 19.0194 7.27293 19.0412L7.23446 19.0309C7.246 19.0343 7.25523 19.0446 7.26369 19.048C7.29447 19.0574 7.31524 19.0609 7.35448 19.0677C7.94923 19.2682 8.42704 18.857 8.42704 18.857L8.45397 18.833L10.6722 16.5845L14.3899 19.7598L14.4746 19.8001C15.2494 20.1787 16.0342 19.968 16.4489 19.5962C16.8667 19.2219 17.029 18.7431 17.029 18.7431L17.0559 18.666L19.9289 2.28054C20.0105 1.87624 20.0312 1.49763 19.9412 1.13016C19.8484 0.758255 19.6341 0.438394 19.3403 0.233323C19.0937 0.0663893 18.8076 -0.0141856 18.5194 0.00204778ZM18.4416 1.75803C18.4386 1.81199 18.4478 1.806 18.4263 1.90964V1.91906L15.5802 18.134C15.5679 18.1572 15.5471 18.2077 15.4902 18.2582C15.4302 18.3114 15.3825 18.3448 15.1324 18.2343L10.5852 14.3531L7.83844 17.1404L8.4155 13.0374L15.8449 5.32824C16.1511 5.0113 16.0488 4.94449 16.0488 4.94449C16.0703 4.5556 15.5864 4.83057 15.5864 4.83057L6.21807 11.2917L6.21499 11.2746L1.72473 9.59141V9.58799L1.71319 9.58542C1.72106 9.58251 1.72877 9.57908 1.73627 9.57514L1.76089 9.56143L1.78474 9.55201C1.78474 9.55201 5.79412 7.67097 9.86968 5.76081C11.9101 4.80401 13.966 3.84036 15.5471 3.09686C16.4848 2.65744 17.4235 2.22058 18.3632 1.7863C18.4263 1.75888 18.3963 1.75803 18.4416 1.75803Z" fill="#858898"/>
</svg>
