<svg width="22" height="22" viewBox="0 0 22 22" fill="none" xmlns="http://www.w3.org/2000/svg">
<path fill-rule="evenodd" clip-rule="evenodd" d="M11.6342 1.8335C9.392 1.8335 7.56784 3.65766 7.56784 5.89983V6.75416C7.56784 7.13366 7.87584 7.44166 8.25534 7.44166C8.63484 7.44166 8.94284 7.13366 8.94284 6.75416V5.89983C8.94284 4.41483 10.1501 3.2085 11.6342 3.2085H16.1029C17.5852 3.2085 18.7915 4.41483 18.7915 5.89983V16.1014C18.7915 17.5855 17.5852 18.7918 16.1029 18.7918H11.6241C10.1464 18.7918 8.94284 17.5892 8.94284 16.1115V15.2471C8.94284 14.8676 8.63484 14.5596 8.25534 14.5596C7.87584 14.5596 7.56784 14.8676 7.56784 15.2471V16.1115C7.56784 18.3482 9.38834 20.1668 11.6241 20.1668H16.1029C18.3433 20.1668 20.1665 18.3436 20.1665 16.1014V5.89983C20.1665 3.65766 18.3433 1.8335 16.1029 1.8335H11.6342ZM4.22741 7.84133L1.54341 10.5134C1.51947 10.5372 1.49802 10.5619 1.4784 10.588L1.54341 10.5134C1.51093 10.5454 1.48205 10.5804 1.45699 10.6177C1.44596 10.6346 1.43532 10.6521 1.42546 10.6701C1.41746 10.6841 1.4101 10.6988 1.40327 10.7137C1.39748 10.7268 1.39193 10.74 1.38678 10.7534C1.37987 10.7708 1.37382 10.7887 1.36851 10.8068C1.36451 10.8211 1.36083 10.8354 1.35761 10.8498C1.35352 10.8673 1.35029 10.885 1.34776 10.9027C1.34632 10.9142 1.34492 10.9263 1.34383 10.9385C1.34173 10.9594 1.34083 10.9798 1.34083 11.0002L1.3455 11.057L1.34738 11.0934C1.34759 11.095 1.34781 11.0965 1.34803 11.0981L1.34083 11.0002C1.34083 11.051 1.34646 11.1014 1.35741 11.1504C1.36083 11.1649 1.36451 11.1792 1.36863 11.1933C1.37382 11.2116 1.37987 11.2295 1.38665 11.2472C1.39193 11.2603 1.39749 11.2735 1.40343 11.2864C1.4101 11.3015 1.41746 11.3162 1.42535 11.3306C1.43532 11.3482 1.44596 11.3657 1.45733 11.3826C1.46377 11.3927 1.47083 11.4026 1.47816 11.4123C1.49998 11.4411 1.52377 11.4681 1.5495 11.4931L4.22741 14.1599C4.36124 14.2937 4.53724 14.3607 4.71233 14.3607C4.88833 14.3607 5.06524 14.2937 5.19908 14.1581C5.46674 13.8886 5.46583 13.4541 5.19724 13.1864L3.694 11.6877H13.0662C13.4457 11.6877 13.7537 11.3797 13.7537 11.0002C13.7537 10.6207 13.4457 10.3127 13.0662 10.3127H3.69217L5.19724 8.81483C5.46583 8.54716 5.46766 8.11266 5.19908 7.84316C4.93141 7.57366 4.49691 7.57366 4.22741 7.84133Z" fill="#858898"/>
</svg>
