<svg width="13" height="14" viewBox="0 0 13 14" fill="none" xmlns="http://www.w3.org/2000/svg">
<path d="M3.97661 13.1361H3.91902C2.75868 13.1251 1.61512 12.8344 0.571137 12.2851C0.379101 12.1873 0.220984 12.0254 0.119932 11.8231C0.0188807 11.6208 -0.0197983 11.3888 0.00955756 11.1609C0.0414844 10.9315 0.139432 10.7189 0.289416 10.5535C0.4394 10.3881 0.633753 10.2782 0.844727 10.2397C1.4917 10.1461 2.1141 9.90962 2.67346 9.54488C1.70233 8.72157 0.954704 7.62872 0.509809 6.38213C0.0649137 5.13555 -0.0606749 3.78167 0.146353 2.46398C0.174423 2.25526 0.257203 2.05968 0.384842 1.90052C0.512482 1.74135 0.679606 1.6253 0.866327 1.56618C1.04799 1.50432 1.2424 1.50167 1.42544 1.55858C1.60847 1.61548 1.77206 1.72942 1.89589 1.88626C2.31636 2.48411 2.84474 2.9828 3.4488 3.35191C4.05287 3.72103 4.71995 3.95283 5.40936 4.03317C5.44229 3.1134 5.80681 2.24438 6.42452 1.61302C6.73296 1.29276 7.0971 1.04226 7.49571 0.876129C7.89433 0.709995 8.31945 0.631545 8.7463 0.64535C9.17315 0.659156 9.59321 0.764941 9.98198 0.956542C10.3708 1.14814 10.7205 1.42173 11.0108 1.76135C11.0864 1.83385 11.1804 1.88006 11.2805 1.89398C11.3806 1.9079 11.4823 1.88889 11.5723 1.83942C11.744 1.75163 11.9352 1.71858 12.1235 1.74413C12.3118 1.76968 12.4896 1.85278 12.636 1.98373C12.7824 2.11468 12.8915 2.28808 12.9505 2.48369C13.0094 2.67931 13.0159 2.88908 12.9691 3.08853C12.803 3.83028 12.4884 4.52329 12.0475 5.11834C11.9503 7.33922 11.0474 9.42838 9.53549 10.9303C8.0236 12.4322 6.02542 13.2251 3.97661 13.1361ZM3.97661 11.5747H4.03421C4.8713 11.6059 5.70578 11.4566 6.48927 11.1355C7.27276 10.8144 7.98967 10.3278 8.59844 9.70405C9.20721 9.08025 9.69573 8.33162 10.0357 7.50155C10.3756 6.67149 10.5602 5.77652 10.5788 4.86852C10.5907 4.61967 10.6853 4.38392 10.8452 4.20493C11.0208 3.96388 11.1705 3.70197 11.2915 3.42423C11.0322 3.42477 10.7756 3.36594 10.5387 3.25159C10.3017 3.13724 10.0897 2.96994 9.9164 2.76064C9.74979 2.58151 9.55191 2.44023 9.33433 2.34505C9.11675 2.24987 8.88384 2.20272 8.64924 2.20635C8.4123 2.1997 8.17648 2.24387 7.95532 2.33631C7.73416 2.42875 7.53202 2.56765 7.36049 2.74503C7.12908 2.98314 6.95939 3.28298 6.86842 3.61454C6.77745 3.9461 6.76837 4.29775 6.84211 4.63431L7.0293 5.5243L6.18693 5.58675C5.32375 5.66308 4.45559 5.53504 3.64256 5.21152C2.82953 4.888 2.09106 4.37672 1.4783 3.71309C1.45202 4.74079 1.68911 5.75626 2.16321 6.6466C2.63731 7.53694 3.32984 8.26727 4.16381 8.75637L4.84778 9.17795L4.3942 9.88057C3.90367 10.5781 3.23157 11.1003 2.46467 11.3795C2.95664 11.5132 3.46224 11.5788 3.96941 11.5747H3.97661Z" fill="#858898"/>
</svg>
