<svg width="1616" height="1001" viewBox="0 0 1616 1001" fill="none" xmlns="http://www.w3.org/2000/svg">
<path d="M445.212 592.065C450.682 613.663 465.99 631.723 489.071 645.876C512.155 660.031 542.987 670.258 579.428 676.188C652.307 688.046 747.521 682.697 847.786 657.307C948.05 631.917 1034.33 591.304 1092.79 546.188C1122.01 523.63 1144.26 499.96 1157.83 476.525C1171.39 453.092 1176.26 429.923 1170.79 408.325C1165.32 386.727 1150.01 368.667 1126.93 354.514C1103.84 340.359 1073.01 330.131 1036.57 324.202C963.693 312.343 868.478 317.692 768.214 343.083C667.949 368.473 581.665 409.086 523.213 454.202C493.987 476.76 471.739 500.429 458.174 523.865C444.61 547.298 439.743 570.467 445.212 592.065Z" stroke="url(#paint0_linear_1848_396)" stroke-opacity="0.6"/>
<path d="M280.675 633.731C288.64 665.184 310.93 691.468 344.5 712.052C378.073 732.639 422.9 747.506 475.864 756.124C581.79 773.36 720.162 765.583 865.862 728.687C1011.56 691.791 1136.96 632.772 1221.91 567.199C1264.39 534.412 1296.74 500.001 1316.47 465.917C1336.2 431.836 1343.29 398.112 1335.32 366.659C1327.36 335.205 1305.07 308.922 1271.5 288.337C1237.93 267.751 1193.1 252.884 1140.14 244.266C1034.21 227.03 895.838 234.806 750.138 271.702C604.438 308.599 479.042 367.617 394.087 433.19C351.608 465.978 319.26 500.388 299.531 534.472C279.804 568.554 272.71 602.278 280.675 633.731Z" stroke="url(#paint1_linear_1848_396)" stroke-opacity="0.6"/>
<path d="M80.4644 684.429C91.4663 727.875 122.251 764.164 168.584 792.575C214.92 820.987 276.777 841.5 349.846 853.389C495.983 877.168 686.87 866.439 887.857 815.542C1088.84 764.646 1261.83 683.23 1379.04 592.764C1437.64 547.53 1482.28 500.049 1509.51 453.008C1536.73 405.97 1546.54 359.402 1535.54 315.957C1524.53 272.511 1493.75 236.222 1447.42 207.811C1401.08 179.399 1339.22 158.886 1266.15 146.997C1120.02 123.218 929.13 133.947 728.143 184.844C527.156 235.741 354.169 317.156 236.963 407.622C178.359 452.856 133.72 500.337 106.492 547.378C79.2654 594.416 69.4625 640.984 80.4644 684.429Z" stroke="url(#paint2_linear_1848_396)" stroke-opacity="0.6"/>
<defs>
<linearGradient id="paint0_linear_1848_396" x1="768.091" y1="342.598" x2="637.972" y2="793.985" gradientUnits="userSpaceOnUse">
<stop stop-color="white" stop-opacity="0.2"/>
<stop offset="1" stop-color="white" stop-opacity="0"/>
</linearGradient>
<linearGradient id="paint1_linear_1848_396" x1="750.015" y1="271.218" x2="560.962" y2="927.052" gradientUnits="userSpaceOnUse">
<stop stop-color="white" stop-opacity="0.2"/>
<stop offset="1" stop-color="white" stop-opacity="0"/>
</linearGradient>
<linearGradient id="paint2_linear_1848_396" x1="728.02" y1="184.359" x2="467.254" y2="1088.97" gradientUnits="userSpaceOnUse">
<stop stop-color="white" stop-opacity="0.2"/>
<stop offset="1" stop-color="white" stop-opacity="0"/>
</linearGradient>
</defs>
</svg>
