<svg xmlns="http://www.w3.org/2000/svg" fill="none">

<symbol id="icon-logo" viewBox="0 0 149 101">
        <path d="M86.2696 5.01758C86.2696 5.01758 130.875 11.4434 144.107 49.6229L129.365 71.1705L118.403 62.6669C118.403 62.6669 67.5599 118.239 23.1421 49.6229C23.1421 49.6229 24.8448 30.9132 57.7337 19.0042L62.2692 30.9082C62.2692 30.9082 46.0123 38.4691 43.367 49.0554C43.367 49.0554 53.0057 72.4931 73.7981 69.4678V59.074C84.9174 60.446 89.4727 38.5037 71.5377 39.7227C64.1891 40.0879 59.6387 50.0868 65.9855 54.6619" stroke="#3F8C8A" stroke-width="8.07" stroke-miterlimit="10"/>
        <path d="M84.9473 67.9581C84.9473 67.9581 103.094 61.5323 105.36 49.6234C105.36 49.6234 98.554 30.5336 74.7411 29.2109" stroke="#3F8C8A" stroke-width="8.07" stroke-miterlimit="10"/>
        <path d="M125.777 48.5815C125.777 48.5815 114.248 18.6242 74.7458 15.5989V5.01757C74.7458 5.01757 25.0374 2.74733 5 49.8154C5 49.8154 37.6372 122.71 114.184 86.8006" stroke="#3F8C8A" stroke-width="8.07" stroke-miterlimit="10"/>
</symbol>

<symbol id="icon-first" viewBox="0 0 58 143">
    <mask id="path-1-outside-1_1848_459" maskUnits="userSpaceOnUse" x="-1" y="0" width="59" height="144" fill="black">
    <rect fill="white" x="-1" width="59" height="144"/>
    <path d="M31.424 143V29L5.66 38.12L0.188001 21.02L38.036 0.955994H57.188V143H31.424Z"/>
    </mask>
    <path d="M31.424 143V29L5.66 38.12L0.188001 21.02L38.036 0.955994H57.188V143H31.424Z" fill="url(#paint0_linear_1848_459)"/>
    <path d="M31.424 143H30.924V143.5H31.424V143ZM31.424 29H31.924V28.2926L31.2572 28.5287L31.424 29ZM5.66 38.12L5.18379 38.2724L5.3409 38.7634L5.82685 38.5913L5.66 38.12ZM0.188 21.02L-0.0461874 20.5782L-0.415663 20.7741L-0.288212 21.1724L0.188 21.02ZM38.036 0.955994V0.455994H37.9117L37.8018 0.514229L38.036 0.955994ZM57.188 0.955994H57.688V0.455994H57.188V0.955994ZM57.188 143V143.5H57.688V143H57.188ZM31.924 143V29H30.924V143H31.924ZM31.2572 28.5287L5.49315 37.6487L5.82685 38.5913L31.5908 29.4713L31.2572 28.5287ZM6.13621 37.9676L0.664213 20.8676L-0.288212 21.1724L5.18379 38.2724L6.13621 37.9676ZM0.42219 21.4618L38.2702 1.39776L37.8018 0.514229L-0.0461874 20.5782L0.42219 21.4618ZM38.036 1.45599H57.188V0.455994H38.036V1.45599ZM56.688 0.955994V143H57.688V0.955994H56.688ZM57.188 142.5H31.424V143.5H57.188V142.5Z" fill="#0FAE96" fill-opacity="0.5" mask="url(#path-1-outside-1_1848_459)"/>
    <defs>
    <linearGradient id="paint0_linear_1848_459" x1="41" y1="-47" x2="41" y2="181" gradientUnits="userSpaceOnUse">
    <stop offset="0.0546875" stop-color="#0A3E2E"/>
    <stop offset="0.841" stop-color="#0A303E" stop-opacity="0"/>
    </linearGradient>
    </defs>
</symbol>

<symbol id="icon-second" viewBox="0 0 94 145">
    <mask id="path-1-outside-1_1848_460" maskUnits="userSpaceOnUse" x="-1" y="0" width="95" height="146" fill="black">
    <rect fill="white" x="-1" width="95" height="146"/>
    <path d="M3.996 125.848C14.94 115.208 24.44 106.012 32.496 98.26C40.552 90.356 47.24 83.364 52.56 77.284C57.88 71.052 61.832 65.2 64.416 59.728C67 54.104 68.292 48.176 68.292 41.944C68.292 28.872 61.604 22.336 48.228 22.336C43.364 22.336 38.956 23.172 35.004 24.844C31.052 26.516 27.48 29.252 24.288 33.052C22.92 35.18 22.008 36.776 21.552 37.84C21.248 38.904 21.172 40.044 21.324 41.26L19.956 42.856L18.36 41.716L0.576001 28.036C5.744 19.372 12.508 12.684 20.868 7.972C29.38 3.25999 38.576 0.903993 48.456 0.903993C56.664 0.903993 64.112 2.65199 70.8 6.14799C77.488 9.492 82.808 14.204 86.76 20.284C90.712 26.364 92.688 33.584 92.688 41.944C92.688 51.672 90.408 60.716 85.848 69.076C81.288 77.284 74.828 85.72 66.468 94.384C58.26 103.048 48.684 112.928 37.74 124.024H82.656C85.088 124.024 86.836 123.872 87.9 123.568C89.116 123.264 90.18 122.656 91.092 121.744H93.144V145H3.996V125.848Z"/>
    </mask>
    <path d="M3.996 125.848C14.94 115.208 24.44 106.012 32.496 98.26C40.552 90.356 47.24 83.364 52.56 77.284C57.88 71.052 61.832 65.2 64.416 59.728C67 54.104 68.292 48.176 68.292 41.944C68.292 28.872 61.604 22.336 48.228 22.336C43.364 22.336 38.956 23.172 35.004 24.844C31.052 26.516 27.48 29.252 24.288 33.052C22.92 35.18 22.008 36.776 21.552 37.84C21.248 38.904 21.172 40.044 21.324 41.26L19.956 42.856L18.36 41.716L0.576001 28.036C5.744 19.372 12.508 12.684 20.868 7.972C29.38 3.25999 38.576 0.903993 48.456 0.903993C56.664 0.903993 64.112 2.65199 70.8 6.14799C77.488 9.492 82.808 14.204 86.76 20.284C90.712 26.364 92.688 33.584 92.688 41.944C92.688 51.672 90.408 60.716 85.848 69.076C81.288 77.284 74.828 85.72 66.468 94.384C58.26 103.048 48.684 112.928 37.74 124.024H82.656C85.088 124.024 86.836 123.872 87.9 123.568C89.116 123.264 90.18 122.656 91.092 121.744H93.144V145H3.996V125.848Z" fill="url(#paint0_linear_1848_460)"/>
    <path d="M3.996 125.848L3.64746 125.49L3.496 125.637V125.848H3.996ZM32.496 98.26L32.8427 98.6203L32.8462 98.6169L32.496 98.26ZM52.56 77.284L52.9363 77.6133L52.9403 77.6086L52.56 77.284ZM64.416 59.728L64.8682 59.9415L64.8703 59.9367L64.416 59.728ZM35.004 24.844L35.1988 25.3045L35.004 24.844ZM24.288 33.052L23.9052 32.7304L23.8847 32.7548L23.8674 32.7816L24.288 33.052ZM21.552 37.84L21.0924 37.643L21.0799 37.6722L21.0712 37.7026L21.552 37.84ZM21.324 41.26L21.7036 41.5854L21.8476 41.4175L21.8201 41.198L21.324 41.26ZM19.956 42.856L19.6654 43.2629L20.0378 43.5289L20.3356 43.1814L19.956 42.856ZM18.36 41.716L18.0551 42.1123L18.0622 42.1177L18.0694 42.1229L18.36 41.716ZM0.576001 28.036L0.146591 27.7799L-0.081008 28.1614L0.271145 28.4323L0.576001 28.036ZM20.868 7.972L20.6258 7.53454L20.6225 7.53642L20.868 7.972ZM70.8 6.14799L70.5683 6.59118L70.5764 6.59521L70.8 6.14799ZM86.76 20.284L87.1792 20.0115L86.76 20.284ZM85.848 69.076L86.2851 69.3188L86.2869 69.3154L85.848 69.076ZM66.468 94.384L66.1082 94.0368L66.105 94.0401L66.468 94.384ZM37.74 124.024L37.384 123.673L36.5446 124.524H37.74V124.024ZM87.9 123.568L87.7787 123.083L87.7707 123.085L87.7626 123.087L87.9 123.568ZM91.092 121.744V121.244H90.8849L90.7384 121.39L91.092 121.744ZM93.144 121.744H93.644V121.244H93.144V121.744ZM93.144 145V145.5H93.644V145H93.144ZM3.996 145H3.496V145.5H3.996V145ZM4.34454 126.206C15.2881 115.567 24.7875 106.372 32.8427 98.6203L32.1493 97.8997C24.0925 105.652 14.5919 114.849 3.64746 125.49L4.34454 126.206ZM32.8462 98.6169C40.908 90.7072 47.6054 83.7057 52.9363 77.6133L52.1837 76.9547C46.8746 83.0223 40.196 90.0048 32.1458 97.9031L32.8462 98.6169ZM52.9403 77.6086C58.2796 71.354 62.2599 65.4649 64.8681 59.9415L63.9639 59.5145C61.4041 64.9351 57.4804 70.75 52.1797 76.9594L52.9403 77.6086ZM64.8703 59.9367C67.4846 54.2468 68.792 48.2475 68.792 41.944H67.792C67.792 48.1045 66.5154 53.9612 63.9617 59.5192L64.8703 59.9367ZM68.792 41.944C68.792 35.328 67.0988 30.2748 63.6255 26.8804C60.1543 23.4881 54.9902 21.836 48.228 21.836V22.836C54.8418 22.836 59.7097 24.4519 62.9265 27.5956C66.1412 30.7372 67.792 35.488 67.792 41.944H68.792ZM48.228 21.836C43.306 21.836 38.8305 22.6822 34.8092 24.3835L35.1988 25.3045C39.0815 23.6618 43.422 22.836 48.228 22.836V21.836ZM34.8092 24.3835C30.7738 26.0908 27.14 28.8794 23.9052 32.7304L24.6709 33.3736C27.82 29.6246 31.3302 26.9412 35.1988 25.3045L34.8092 24.3835ZM23.8674 32.7816C22.4977 34.9123 21.566 36.538 21.0924 37.643L22.0116 38.037C22.45 37.014 23.3423 35.4477 24.7086 33.3224L23.8674 32.7816ZM21.0712 37.7026C20.7468 38.838 20.6684 40.0464 20.8279 41.322L21.8201 41.198C21.6756 40.0416 21.7492 38.97 22.0328 37.9774L21.0712 37.7026ZM20.9444 40.9346L19.5764 42.5306L20.3356 43.1814L21.7036 41.5854L20.9444 40.9346ZM20.2466 42.4491L18.6506 41.3091L18.0694 42.1229L19.6654 43.2629L20.2466 42.4491ZM18.6649 41.3197L0.880857 27.6397L0.271145 28.4323L18.0551 42.1123L18.6649 41.3197ZM1.00541 28.2921C6.13116 19.699 12.8333 13.0746 21.1135 8.40757L20.6225 7.53642C12.1827 12.2934 5.35684 19.045 0.146591 27.7799L1.00541 28.2921ZM21.1102 8.40944C29.5469 3.73913 38.6593 1.40399 48.456 1.40399V0.403992C38.4927 0.403992 29.2132 2.78086 20.6258 7.53455L21.1102 8.40944ZM48.456 1.40399C56.5906 1.40399 63.958 3.13568 70.5684 6.59111L71.0316 5.70488C64.266 2.1683 56.7374 0.403992 48.456 0.403992V1.40399ZM70.5764 6.59521C77.1874 9.90071 82.4388 14.5535 86.3408 20.5565L87.1792 20.0115C83.1772 13.8545 77.7886 9.08328 71.0236 5.70078L70.5764 6.59521ZM86.3408 20.5565C90.2324 26.5435 92.188 33.6656 92.188 41.944H93.188C93.188 33.5024 91.1916 26.1844 87.1792 20.0115L86.3408 20.5565ZM92.188 41.944C92.188 51.5902 89.9281 60.5517 85.4091 68.8366L86.2869 69.3154C90.8879 60.8803 93.188 51.7538 93.188 41.944H92.188ZM85.4109 68.8332C80.877 76.9942 74.446 85.3958 66.1082 94.0368L66.8278 94.7312C75.21 86.0442 81.699 77.5737 86.2851 69.3188L85.4109 68.8332ZM66.105 94.0401C57.8999 102.701 48.3263 112.579 37.384 123.673L38.096 124.375C49.0417 113.277 58.6201 103.395 66.831 94.7279L66.105 94.0401ZM37.74 124.524H82.656V123.524H37.74V124.524ZM82.656 124.524C85.0926 124.524 86.9011 124.373 88.0374 124.049L87.7626 123.087C86.7709 123.371 85.0834 123.524 82.656 123.524V124.524ZM88.0213 124.053C89.3278 123.726 90.4714 123.072 91.4456 122.098L90.7384 121.39C89.8886 122.24 88.9042 122.802 87.7787 123.083L88.0213 124.053ZM91.092 122.244H93.144V121.244H91.092V122.244ZM92.644 121.744V145H93.644V121.744H92.644ZM93.144 144.5H3.996V145.5H93.144V144.5ZM4.496 145V125.848H3.496V145H4.496Z" fill="#0FAE96" fill-opacity="0.5" mask="url(#path-1-outside-1_1848_460)"/>
    <defs>
    <linearGradient id="paint0_linear_1848_460" x1="48" y1="-45" x2="48" y2="183" gradientUnits="userSpaceOnUse">
    <stop offset="0.0546875" stop-color="#0A3E2E"/>
    <stop offset="0.841" stop-color="#0A303E" stop-opacity="0"/>
    </linearGradient>
    </defs>
</symbol>

<symbol id="icon-third" viewBox="0 0 92 156">
    <g filter="url(#filter0_d_1848_461)">
    <mask id="path-1-outside-1_1848_461" maskUnits="userSpaceOnUse" x="3" y="0" width="93" height="149" fill="black">
    <rect fill="white" x="3" width="93" height="149"/>
    <path d="M47.58 147.736C39.22 147.736 31.088 146.368 23.184 143.632C15.28 140.744 8.896 136.412 4.032 130.636L17.028 111.712L18.396 109.888L20.22 111.028C20.524 112.244 20.828 113.46 21.132 114.676C21.588 115.892 22.728 117.412 24.552 119.236C27.288 121.668 30.48 123.644 34.128 125.164C37.776 126.532 41.88 127.216 46.44 127.216C53.736 127.216 59.284 125.164 63.084 121.06C67.036 116.804 69.012 111.332 69.012 104.644C69.012 95.22 65.82 88.684 59.436 85.036C53.204 81.388 43.932 80.248 31.62 81.616V61.552C40.588 61.704 47.504 60.868 52.368 59.044C57.384 57.068 60.88 54.408 62.856 51.064C64.832 47.72 65.82 44.148 65.82 40.348C65.82 34.724 64.072 30.316 60.576 27.124C57.232 23.78 52.672 22.108 46.896 22.108C42.336 22.108 37.852 23.02 33.444 24.844C29.188 26.516 25.388 29.252 22.044 33.052L7.224 18.004C12.544 11.772 18.852 7.36399 26.148 4.78C33.444 2.19599 40.664 0.903993 47.808 0.903993C56.168 0.903993 63.54 2.5 69.924 5.692C76.46 8.88399 81.552 13.216 85.2 18.688C88.848 24.16 90.672 30.468 90.672 37.612C90.672 45.516 88.392 52.28 83.832 57.904C79.424 63.376 74.332 67.252 68.556 69.532C72.964 71.052 77.144 73.332 81.096 76.372C85.2 79.412 88.468 83.364 90.9 88.228C93.484 93.092 94.776 98.868 94.776 105.556C94.776 113.46 92.876 120.604 89.076 126.988C85.276 133.22 79.804 138.236 72.66 142.036C65.668 145.836 57.308 147.736 47.58 147.736Z"/>
    </mask>
    <path d="M47.58 147.736C39.22 147.736 31.088 146.368 23.184 143.632C15.28 140.744 8.896 136.412 4.032 130.636L17.028 111.712L18.396 109.888L20.22 111.028C20.524 112.244 20.828 113.46 21.132 114.676C21.588 115.892 22.728 117.412 24.552 119.236C27.288 121.668 30.48 123.644 34.128 125.164C37.776 126.532 41.88 127.216 46.44 127.216C53.736 127.216 59.284 125.164 63.084 121.06C67.036 116.804 69.012 111.332 69.012 104.644C69.012 95.22 65.82 88.684 59.436 85.036C53.204 81.388 43.932 80.248 31.62 81.616V61.552C40.588 61.704 47.504 60.868 52.368 59.044C57.384 57.068 60.88 54.408 62.856 51.064C64.832 47.72 65.82 44.148 65.82 40.348C65.82 34.724 64.072 30.316 60.576 27.124C57.232 23.78 52.672 22.108 46.896 22.108C42.336 22.108 37.852 23.02 33.444 24.844C29.188 26.516 25.388 29.252 22.044 33.052L7.224 18.004C12.544 11.772 18.852 7.36399 26.148 4.78C33.444 2.19599 40.664 0.903993 47.808 0.903993C56.168 0.903993 63.54 2.5 69.924 5.692C76.46 8.88399 81.552 13.216 85.2 18.688C88.848 24.16 90.672 30.468 90.672 37.612C90.672 45.516 88.392 52.28 83.832 57.904C79.424 63.376 74.332 67.252 68.556 69.532C72.964 71.052 77.144 73.332 81.096 76.372C85.2 79.412 88.468 83.364 90.9 88.228C93.484 93.092 94.776 98.868 94.776 105.556C94.776 113.46 92.876 120.604 89.076 126.988C85.276 133.22 79.804 138.236 72.66 142.036C65.668 145.836 57.308 147.736 47.58 147.736Z" fill="url(#paint0_linear_1848_461)" shape-rendering="crispEdges"/>
    <path d="M23.184 143.632L23.0124 144.102L23.0204 144.104L23.184 143.632ZM4.032 130.636L3.61983 130.353L3.40428 130.667L3.64955 130.958L4.032 130.636ZM17.028 111.712L16.628 111.412L16.6217 111.42L16.6158 111.429L17.028 111.712ZM18.396 109.888L18.661 109.464L18.2716 109.221L17.996 109.588L18.396 109.888ZM20.22 111.028L20.7051 110.907L20.6561 110.711L20.485 110.604L20.22 111.028ZM21.132 114.676L20.6469 114.797L20.6538 114.825L20.6638 114.852L21.132 114.676ZM24.552 119.236L24.1984 119.59L24.2088 119.6L24.2198 119.61L24.552 119.236ZM34.128 125.164L33.9357 125.626L33.944 125.629L33.9524 125.632L34.128 125.164ZM63.084 121.06L62.7176 120.72L62.7171 120.72L63.084 121.06ZM59.436 85.036L59.1834 85.4675L59.1879 85.4701L59.436 85.036ZM31.62 81.616H31.12V82.1746L31.6752 82.1129L31.62 81.616ZM31.62 61.552L31.6285 61.0521L31.12 61.0434V61.552H31.62ZM52.368 59.044L52.5436 59.5122L52.5513 59.5092L52.368 59.044ZM62.856 51.064L62.4255 50.8096L62.4255 50.8096L62.856 51.064ZM60.576 27.124L60.2225 27.4775L60.2305 27.4856L60.2389 27.4932L60.576 27.124ZM33.444 24.844L33.6269 25.3094L33.6352 25.306L33.444 24.844ZM22.044 33.052L21.6878 33.4028L22.0646 33.7855L22.4194 33.3823L22.044 33.052ZM7.224 18.004L6.84372 17.6794L6.54599 18.0281L6.86776 18.3548L7.224 18.004ZM26.148 4.78L26.3149 5.25131L26.3149 5.25131L26.148 4.78ZM69.924 5.692L69.7004 6.13923L69.7046 6.14128L69.924 5.692ZM85.2 18.688L84.784 18.9653L84.784 18.9653L85.2 18.688ZM83.832 57.904L83.4436 57.5891L83.4426 57.5903L83.832 57.904ZM68.556 69.532L68.3724 69.0669L67.114 69.5636L68.393 70.0047L68.556 69.532ZM81.096 76.372L80.7911 76.7684L80.7984 76.7738L81.096 76.372ZM90.9 88.228L90.4527 88.4517L90.4584 88.4626L90.9 88.228ZM89.076 126.988L89.5029 127.248L89.5057 127.244L89.076 126.988ZM72.66 142.036L72.4252 141.595L72.4212 141.597L72.66 142.036ZM47.58 147.236C39.2757 147.236 31.199 145.877 23.3476 143.16L23.0204 144.104C30.977 146.859 39.1643 148.236 47.58 148.236V147.236ZM23.3556 143.162C15.524 140.301 9.21602 136.016 4.41446 130.314L3.64955 130.958C8.57598 136.808 15.036 141.187 23.0124 144.102L23.3556 143.162ZM4.44417 130.919L17.4402 111.995L16.6158 111.429L3.61983 130.353L4.44417 130.919ZM17.428 112.012L18.796 110.188L17.996 109.588L16.628 111.412L17.428 112.012ZM18.131 110.312L19.955 111.452L20.485 110.604L18.661 109.464L18.131 110.312ZM19.7349 111.149C20.0389 112.365 20.3429 113.581 20.6469 114.797L21.6171 114.555C21.3131 113.339 21.0091 112.123 20.7051 110.907L19.7349 111.149ZM20.6638 114.852C21.1592 116.172 22.3641 117.755 24.1984 119.59L24.9056 118.882C23.0919 117.069 22.0168 115.612 21.6002 114.5L20.6638 114.852ZM24.2198 119.61C27.0004 122.081 30.2406 124.086 33.9357 125.626L34.3203 124.702C30.7194 123.202 27.5756 121.255 24.8842 118.862L24.2198 119.61ZM33.9524 125.632C37.6653 127.024 41.8301 127.716 46.44 127.716V126.716C41.9299 126.716 37.8867 126.04 34.3036 124.696L33.9524 125.632ZM46.44 127.716C53.8306 127.716 59.5297 125.635 63.4509 121.4L62.7171 120.72C59.0384 124.693 53.6414 126.716 46.44 126.716V127.716ZM63.4504 121.4C67.5013 117.038 69.512 111.438 69.512 104.644H68.512C68.512 111.226 66.5707 116.57 62.7176 120.72L63.4504 121.4ZM69.512 104.644C69.512 95.099 66.2687 88.3645 59.6841 84.6019L59.1879 85.4701C65.3713 89.0035 68.512 95.3409 68.512 104.644H69.512ZM59.6886 84.6045C53.3179 80.8753 43.915 79.7468 31.5648 81.1191L31.6752 82.1129C43.949 80.7492 53.0901 81.9007 59.1834 85.4675L59.6886 84.6045ZM32.12 81.616V61.552H31.12V81.616H32.12ZM31.6115 62.0519C40.6034 62.2043 47.5929 61.3687 52.5436 59.5122L52.1924 58.5758C47.4151 60.3673 40.5726 61.2037 31.6285 61.0521L31.6115 62.0519ZM52.5513 59.5092C57.6313 57.508 61.2355 54.7893 63.2865 51.3184L62.4255 50.8096C60.5245 54.0267 57.1367 56.628 52.1847 58.5788L52.5513 59.5092ZM63.2865 51.3184C65.3069 47.8991 66.32 44.2395 66.32 40.348H65.32C65.32 44.0565 64.3571 47.5409 62.4255 50.8096L63.2865 51.3184ZM66.32 40.348C66.32 34.6123 64.5324 30.0593 60.9131 26.7548L60.2389 27.4932C63.6116 30.5727 65.32 34.8357 65.32 40.348H66.32ZM60.9296 26.7704C57.4718 23.3127 52.7734 21.608 46.896 21.608V22.608C52.5706 22.608 56.9922 24.2473 60.2225 27.4775L60.9296 26.7704ZM46.896 21.608C42.2674 21.608 37.7186 22.5341 33.2528 24.382L33.6352 25.306C37.9854 23.5059 42.4046 22.608 46.896 22.608V21.608ZM33.2612 24.3786C28.9235 26.0827 25.0595 28.8685 21.6686 32.7217L22.4194 33.3823C25.7165 29.6355 29.4525 26.9493 33.6268 25.3094L33.2612 24.3786ZM22.4002 32.7011L7.58024 17.6531L6.86776 18.3548L21.6878 33.4028L22.4002 32.7011ZM7.60428 18.3286C12.8707 12.1593 19.1066 7.80426 26.3149 5.25131L25.9811 4.30868C18.5974 6.92372 12.2173 11.3846 6.84372 17.6794L7.60428 18.3286ZM26.3149 5.25131C33.5618 2.68471 40.7254 1.40399 47.808 1.40399V0.403993C40.6026 0.403993 33.3262 1.70728 25.9811 4.30868L26.3149 5.25131ZM47.808 1.40399C56.1036 1.40399 63.3968 2.9874 69.7004 6.13921L70.1476 5.24479C63.6832 2.01259 56.2324 0.403993 47.808 0.403993V1.40399ZM69.7046 6.14128C76.1696 9.29863 81.1902 13.5747 84.784 18.9653L85.616 18.4106C81.9138 12.8573 76.7504 8.46936 70.1434 5.24272L69.7046 6.14128ZM84.784 18.9653C88.3725 24.3481 90.172 30.5578 90.172 37.612H91.172C91.172 30.3782 89.3235 23.9719 85.616 18.4106L84.784 18.9653ZM90.172 37.612C90.172 45.4126 87.9246 52.0625 83.4436 57.5891L84.2204 58.2189C88.8594 52.4975 91.172 45.6194 91.172 37.612H90.172ZM83.4426 57.5903C79.0817 63.0039 74.0577 66.8227 68.3724 69.0669L68.7396 69.9971C74.6063 67.6813 79.7663 63.7481 84.2214 58.2177L83.4426 57.5903ZM68.393 70.0047C72.7465 71.5059 76.879 73.759 80.7912 76.7683L81.4009 75.9757C77.409 72.905 73.1815 70.5981 68.719 69.0593L68.393 70.0047ZM80.7984 76.7738C84.8351 79.764 88.0536 83.6533 90.4528 88.4516L91.3472 88.0044C88.8824 83.0747 85.5649 79.06 81.3936 75.9702L80.7984 76.7738ZM90.4584 88.4626C92.9967 93.2404 94.276 98.9324 94.276 105.556H95.276C95.276 98.8036 93.9713 92.9436 91.3416 87.9934L90.4584 88.4626ZM94.276 105.556C94.276 113.376 92.3973 120.431 88.6464 126.732L89.5057 127.244C93.3547 120.777 95.276 113.544 95.276 105.556H94.276ZM88.6491 126.728C84.9007 132.875 79.4989 137.832 72.4252 141.595L72.8948 142.477C80.1091 138.64 85.6513 133.565 89.5029 127.248L88.6491 126.728ZM72.4212 141.597C65.5171 145.349 57.243 147.236 47.58 147.236V148.236C57.373 148.236 65.8189 146.323 72.8988 142.475L72.4212 141.597Z" fill="#0FAE96" fill-opacity="0.5" mask="url(#path-1-outside-1_1848_461)"/>
    </g>
    <defs>
    <filter id="filter0_d_1848_461" x="0.0319824" y="0.904297" width="98.744" height="154.832" filterUnits="userSpaceOnUse" color-interpolation-filters="sRGB">
    <feFlood flood-opacity="0" result="BackgroundImageFix"/>
    <feColorMatrix in="SourceAlpha" type="matrix" values="0 0 0 0 0 0 0 0 0 0 0 0 0 0 0 0 0 0 127 0" result="hardAlpha"/>
    <feOffset dy="4"/>
    <feGaussianBlur stdDeviation="2"/>
    <feComposite in2="hardAlpha" operator="out"/>
    <feColorMatrix type="matrix" values="0 0 0 0 0 0 0 0 0 0 0 0 0 0 0 0 0 0 0.25 0"/>
    <feBlend mode="normal" in2="BackgroundImageFix" result="effect1_dropShadow_1848_461"/>
    <feBlend mode="normal" in="SourceGraphic" in2="effect1_dropShadow_1848_461" result="shape"/>
    </filter>
    <linearGradient id="paint0_linear_1848_461" x1="51" y1="-45" x2="51" y2="151" gradientUnits="userSpaceOnUse">
    <stop offset="0.0546875" stop-color="#0A3E2E"/>
    <stop offset="0.841" stop-color="#0A303E" stop-opacity="0"/>
    </linearGradient>
    </defs>
</symbol>

<symbol id="icon-telegram" viewBox="0 0 24 24">
<path d="M12 0C5.376 0 0 5.376 0 12C0 18.624 5.376 24 12 24C18.624 24 24 18.624 24 12C24 5.376 18.624 0 12 0ZM17.568 8.16C17.388 10.056 16.608 14.664 16.212 16.788C16.044 17.688 15.708 17.988 15.396 18.024C14.7 18.084 14.172 17.568 13.5 17.124C12.444 16.428 11.844 15.996 10.824 15.324C9.636 14.544 10.404 14.112 11.088 13.416C11.268 13.236 14.34 10.44 14.4 10.188C14.4083 10.1498 14.4072 10.1102 14.3968 10.0726C14.3863 10.0349 14.3668 10.0004 14.34 9.972C14.268 9.912 14.172 9.936 14.088 9.948C13.98 9.972 12.3 11.088 9.024 13.296C8.544 13.62 8.112 13.788 7.728 13.776C7.296 13.764 6.48 13.536 5.868 13.332C5.112 13.092 4.524 12.96 4.572 12.54C4.596 12.324 4.896 12.108 5.46 11.88C8.964 10.356 11.292 9.348 12.456 8.868C15.792 7.476 16.476 7.236 16.932 7.236C17.028 7.236 17.256 7.26 17.4 7.38C17.52 7.476 17.556 7.608 17.568 7.704C17.556 7.776 17.58 7.992 17.568 8.16Z" fill="currentColor"/>
</symbol>

<symbol id="icon-twitter" viewBox="0 0 24 24">
<path d="M3.42857 0C1.5375 0 0 1.5375 0 3.42857V20.5714C0 22.4625 1.5375 24 3.42857 24H20.5714C22.4625 24 24 22.4625 24 20.5714V3.42857C24 1.5375 22.4625 0 20.5714 0H3.42857ZM19.3446 4.5L13.7839 10.8536L20.325 19.5H15.2036L11.1964 14.2554L6.60536 19.5H4.06071L10.0071 12.7018L3.73393 4.5H8.98393L12.6107 9.29464L16.8 4.5H19.3446ZM17.3196 17.9786L8.21786 5.94107H6.70179L15.9054 17.9786H17.3143H17.3196Z" fill="currentColor"/>
</symbol>


</svg>