<svg width="24" height="20" viewBox="0 0 24 20" fill="none" xmlns="http://www.w3.org/2000/svg">
<path fill-rule="evenodd" clip-rule="evenodd" d="M9.66 0H13.1178C15.16 0 16.7778 1.36305e-07 18.0433 0.174942C19.3456 0.355601 20.4 0.735213 21.2322 1.59048C22.2589 2.64814 22.5867 4.06368 22.7056 5.90114C23.3467 6.19043 23.8311 6.80444 23.8833 7.58196C23.8889 7.6517 23.8889 7.72603 23.8889 7.79463V12.2151C23.8889 12.2837 23.8889 12.358 23.8844 12.4266C23.8311 13.2041 23.3467 13.8193 22.7056 14.1097C22.5867 15.946 22.2589 17.3615 21.2322 18.4192C20.4 19.2745 19.3456 19.6541 18.0433 19.8347C16.7767 20.0097 15.16 20.0097 13.1178 20.0097H9.66C7.61778 20.0097 6 20.0097 4.73444 19.8347C3.43222 19.6541 2.37778 19.2745 1.54556 18.4192C0.714444 17.5628 0.345556 16.4777 0.17 15.1376C0 13.8341 0 12.1705 0 10.0689V9.94081C0 7.83922 0 6.17442 0.17 4.87207C0.345556 3.532 0.714444 2.4469 1.54556 1.59048C2.37778 0.735213 3.43222 0.355601 4.73444 0.174942C6.00111 1.36305e-07 7.61778 0 9.66 0ZM21.02 14.2926H18.8667C16.4833 14.2926 14.4433 12.4312 14.4433 10.0048C14.4433 7.57853 16.4833 5.71705 18.8656 5.71705H21.0189C20.8922 4.18374 20.6067 3.37306 20.0522 2.80364C19.5822 2.31998 18.9378 2.02955 17.82 1.87519C16.6789 1.7174 15.1733 1.71512 13.0544 1.71512H9.72111C7.60222 1.71512 6.09778 1.7174 4.95444 1.87519C3.83778 2.02955 3.19333 2.31998 2.72333 2.80364C2.25333 3.28731 1.97222 3.95048 1.82222 5.09961C1.66889 6.27504 1.66667 7.82322 1.66667 10.0037C1.66667 12.1842 1.66889 13.7335 1.82222 14.9089C1.97222 16.0581 2.25444 16.7212 2.72444 17.2049C3.19444 17.6886 3.83889 17.979 4.95667 18.1334C6.09889 18.2911 7.60333 18.2934 9.72222 18.2934H13.0556C15.1744 18.2934 16.68 18.2911 17.8222 18.1334C18.9389 17.979 19.5833 17.6886 20.0533 17.2049C20.6078 16.6355 20.8933 15.8259 21.02 14.2915M4.44444 5.4312C4.44444 5.20376 4.53224 4.98564 4.68852 4.82482C4.8448 4.66399 5.05676 4.57364 5.27778 4.57364H9.72222C9.94324 4.57364 10.1552 4.66399 10.3115 4.82482C10.4678 4.98564 10.5556 5.20376 10.5556 5.4312C10.5556 5.65864 10.4678 5.87676 10.3115 6.03759C10.1552 6.19841 9.94324 6.28876 9.72222 6.28876H5.27778C5.05676 6.28876 4.8448 6.19841 4.68852 6.03759C4.53224 5.87676 4.44444 5.65864 4.44444 5.4312ZM21.86 7.43217H18.8667C17.2844 7.43217 16.11 8.64304 16.11 10.0048C16.11 11.3666 17.2844 12.5775 18.8656 12.5775H21.8856C22.1144 12.5627 22.2133 12.4037 22.2211 12.3077V7.70202C22.2133 7.60597 22.1144 7.44703 21.8856 7.43331L21.86 7.43217Z" fill="#858898"/>
</svg>
